# xmcd
#
# Track frame offsets:
#	150
#	12059
#	28585
#	45900
#	65053
#	81343
#	101345
#	115261
#	134036
#	152689
#	168556
#	188212
#	206920
#	224459
#	240381
#	258254
#	273786
#	293331
#	306466
#
# Disc length: 4376 seconds
#
# Revision: 0
# Processed by: cddbd v1.5.2PL0 Copyright (c) Steve Scherf et al.
# Submitted via: EasyCDDAExtractor 15.2.5.1
#
DISCID=0c111613
DTITLE=Various Artist - The Best Of Cream Of Country - Volume 3 [CDOne)
DYEAR=2011
DGENRE=Country
TTITLE0=Alan Jackson - Little Bitty
TTITLE1=Brooks and Dunn - How Long Gone
TTITLE2=Dolly Parton - The Salt In My Tears
TTITLE3=Tim Mcgraw - She's My Kind Of Rain
TTITLE4=Lee Brice - Love Like Crazy
TTITLE5=Leann Rimes - Nothin' Better To Do
TTITLE6=Joe Nichols - Gimme That Girl
TTITLE7=Josh Turner - Long Black Train
TTITLE8=Patty Loveless (With George Jones) - You Don't Seem To Miss Me
TTITLE9=Kenny Chesney - No Shoes, No Shirt, No Problems
TTITLE10=Dierks Bently - What Was I Thinkin'
TTITLE11=Martina Mcbride - When God-Fearin' Women Get The Blues
TTITLE12=Billy Currington - People Are Crazy
TTITLE13=Toby Kieth (Featuring Willie Nelson) - Beer For My Horses
TTITLE14=Miranda Lambert - The House That Built Me
TTITLE15=Blake Shelton - All About Tonight
TTITLE16=The Mavericks - All You Ever Do Is Bring Me Down
TTITLE17=Terri Clark - I Wanna Do It All
TTITLE18=Montgomery Gentry - Hell Yeah
EXTD=
EXTT0=
EXTT1=
EXTT2=
EXTT3=
EXTT4=
EXTT5=
EXTT6=
EXTT7=
EXTT8=
EXTT9=
EXTT10=
EXTT11=
EXTT12=
EXTT13=
EXTT14=
EXTT15=
EXTT16=
EXTT17=
EXTT18=
PLAYORDER=
